<?xml version="1.0" encoding="utf-8"?>
<!-- Generator: Adobe Illustrator 17.1.0, SVG Export Plug-In . SVG Version: 6.00 Build 0)  -->
<!DOCTYPE svg PUBLIC "-//W3C//DTD SVG 1.1//EN" "http://www.w3.org/Graphics/SVG/1.1/DTD/svg11.dtd">
<svg version="1.1" id="Layer_1" xmlns="http://www.w3.org/2000/svg" xmlns:xlink="http://www.w3.org/1999/xlink" x="0px" y="0px"
	 viewBox="0 0 1114 791" enable-background="new 0 0 1114 791" xml:space="preserve">
<path fill="#060203" d="M878.5,0h1.2c19.2,5.4,38.3,11,57.4,16.6c-10.8,11.1-22.5,21.3-33.6,32.1c7-0.3,14.1-1,21.1-1.7
	c-3.5,8.2-7,16.4-10.3,24.6c2,1.5,4,2.8,6.1,4.2c5.5,10.7,11.3,21.4,14.8,33c4.6,12.9,5.9,26.7,7.8,40.2
	c-0.5,11.4-0.9,23.2-4.5,34.1c29.9-3.9,59.8-7.4,89.7-11c6.9,29,14.3,58,21.5,87c1.9,7.7,3.8,15.5,6,23.2c-3,5.1-6.2,10.1-9.4,15.1
	c-4.4,7.2-12,11.3-17.8,17.2c-6.9,2.5-13.7,5.2-20.7,7.5c-9.9,3.6-20.4,5.3-30.8,7.3c-0.3,0.3-0.8,0.9-1,1.2
	c11.2,9.7,22.1,19.7,33.1,29.7c8.3,7.1,15.1,15.5,22.9,23.1c5.2,5.1,9.9,10.7,15.3,15.7c4.1,4.6,8.3,9.1,12.8,13.3
	c0.1,14.6-0.5,29.2,0.5,43.7c0,12.3,0,24.6,0,37c1,13.8,0.2,27.6,0.5,41.4c-9.9,14.6-20.7,28.5-30.9,42.9
	c-8.2,11.2-16.4,22.4-24.5,33.7c-3.7,4.6-6.7,9.8-10.8,13.9c-9.9,3.8-20.1,6.5-30.1,10c-22.3,6.3-44.4,13.3-67,18.6
	c-14.8,3.5-29.5,8.2-44.8,9.5c-6.8,1.1-13.8-0.3-20.4-1.8c-7.8-6.1-15.7-12.2-23.3-18.6c-2.4-3.5-2.6-8-4.2-11.9
	c-2.7-6.4-1.3-13.6-3.4-20.2c-4.8-16-9.3-32-14.3-47.9c-3.7,15.3-7.1,30.6-10.8,45.9c-0.8,2.7-0.5,5.9-2.7,7.9
	c0.2,5.9-2.1,11.5-3.1,17.2c-3.6,14.6-6.7,29.4-10.6,44c0.7-0.1,2-0.3,2.7-0.4c-2.7-0.2-3,2.1-3.5,4.2
	c-68.4-30.1-136.9-59.8-205.3-89.7c-0.9-0.4-1.8-0.9-2.6-1.5c2.3-25.3,4.6-50.5,6.6-75.8c-25.5,2.4-51,5.5-76.6,8.3
	c-12.5,1.3-25.1,3.1-37.6,3.6c-13.7-10.6-27-21.9-40.3-33c-2.5,41.6-4.4,83.2-6.7,124.9c-0.8-0.2-2.4-0.7-3.2-0.9
	c-0.1,0.4-0.2,1.1-0.3,1.5l0.1-1.3c-53.4-5.8-106.7-12-160.1-17.6c6.7-56.9,13.9-113.8,20.8-170.8c0.6-3.9,0.7-8,2.4-11.7
	c17.4-37.9,35.1-75.7,52.4-113.7c-3,2.8-5.6,5.8-8.8,8.4c0.6,0.4,1.3,0.9,1.9,1.3c-0.8,0-2.3,0-3.1-0.1
	c-12.4,12.9-25.2,25.3-37.7,38c-3.9,3.7-7.4,7.9-11.6,11.2c-0.5,0.1-1.6,0.3-2.1,0.4c-9,22.9-17.9,45.9-26.9,68.8
	c-0.7,1.4-0.4,3-0.2,4.6l-1.1-1.8c-0.8,2.2-1.3,4.5-0.8,6.9l-0.9-2c-1.4,3.9-2.9,7.9-4.5,11.7c-2.9-12-5.7-24.1-8.4-36.2
	c-0.3,0.3-0.9,0.8-1.2,1.1c0.7-1.2,1.1-2.6,0.5-4c-11.2-48-22.2-95.9-33.4-143.9c-0.8-2.7-0.9-5.8-2.4-8.2
	c-4.5-3.5-9.2-6.7-13.9-9.9c1.5,9,2.3,18.2,3.5,27.2c6.3,48.6,12.5,97.2,18.7,145.8c1,12.7,3.4,25.2,5.1,37.9
	c7.8,52.6,15.5,105.3,23,158c-55,2.4-110,4.2-165,6.8c-2.5-29.8-5.4-59.5-7.8-89.3c-0.3,0.1-0.9,0.4-1.1,0.5
	c1.2-1.7,0.7-3.8,0.5-5.7c-2.1-21.6-4-43.3-5.7-65c3.8-1.2,7.5-2.5,11.4-3.7c-3.2-22.3-6.2-44.6-9.2-66.9
	c-3.5-17.3-4.5-34.9-7.3-52.3c-6.2-45.8-12.5-91.5-18.8-137.3C1.2,197.3,2,188.6,1,180c-0.2-12.9,0.2-25.8-0.2-38.8
	c0.3-12.1,0-24.2,0.2-36.3c0.1-2.5-0.2-4.9-1.1-7.2V40c48.7,0.1,97.3-0.2,146,0.1C166.3,57,185.9,74.8,206,91.9
	c5.3,5,11.3,9.3,16.3,14.6c14.2,21.6,28.4,43.1,42.5,64.8c2.7-2.1,5.3-4.3,8-6.5c38.5-32.2,77.2-64,115.5-96.3
	c36.4-3.3,72.9-6.5,109.3-10.1c-7.1,45.5-14.1,91.1-21.2,136.6c16.9-4.2,33.6-9.4,50.6-13.3c27.3,6.5,54.3,14,81.6,20.8
	c6.3-22.5,12.6-45.1,19.2-67.6c57.4,8.7,114.8,17.3,172.3,26c3.5,0.5,7.1,0.9,10.6,1.9c-3.2-10.3-5.7-21.1-6.1-31.9
	c-7.7,1.3-15.4,3.1-23.1,4.8c7.1-8.7,13.8-17.5,21-26.1c1.6-1.9,3.3-3.8,4.5-6c0.3-1.9,0.1-3.8,0.1-5.8c2.7-2.9,5.8-5.6,8-9
	c-2.8-1-5.6-1.6-8.3-2.8c5.2-2.2,10.7-3.4,15.9-5.6c3.2-2.4,5.6-5.7,8.9-8.1c2.4-10,3.5-20.2,5.2-30.4c1.9-6.3,4.5-12.3,7-18.4
	c3-5.1,6.9-9.7,11.1-13.8c3.3-2.4,6.6-4.8,10.1-6.9C869.2,1.3,873.9,0.8,878.5,0z"/>
<path fill="#4E9636" d="M865.3,39.3c2.4-4.9,4.8-10.9,10.7-12.4c3.2,0.2,6.1,1.5,9.2,2.4c-2.6,2.8-6,4.5-9.8,5
	c-4.7,7.4-5.6,16.2-7.9,24.5c-2,6.2,0,12.7,0.1,19c5.3-0.2,10.5-1.2,15.9-0.9c-5.9,3.8-13.3,4.7-19.7,7.4c2.8,1.2,5.7,2.1,8.6,2.8
	c-1.9,2.8-3.9,5.5-6.1,8.1c-1.8,0.3-3.6,0.5-5.3,1c-4.3,2.2-6.5,8-11.5,8.6c-0.1-0.7-0.2-2-0.3-2.7c2.9-3.3,5.3-6.9,8.5-9.9
	c-1.5,0.2-2.9,0.4-4.3,0.6c3.5-12.7,6.8-25.4,8.4-38.4C862.5,49.3,863,44,865.3,39.3z"/>
<path fill="#E22223" d="M38.3,77.5c31.3,0.1,62.5-0.1,93.8,0.1c8.2,6.8,18.2,11.1,26.9,17.2c1.5,1.1,3.2,1.9,4.9,2.6
	c-2.6,0.3-5.3,0.7-7.9,1c11.5,9.9,23,19.9,34.5,29.8c1.8,1.5,3.4,3.3,4.7,5.3c20.7,30.5,40.4,61.7,61,92.3c3.7-0.6,6-3.6,8.7-5.9
	c11.1-9.2,22.3-18.2,33.1-27.8c23.1-18.9,46.2-37.8,68.9-57.2c11.8-9.2,22.9-19.2,34.5-28.6c2.3-2.2,5.6-1.9,8.5-2.1
	c11.7-1,23.3-2.2,35-3.1c2.7-0.3,5.5-1.1,8.2-0.5c0.5,2.7-0.5,5.5-0.8,8.2c-4.5,29.8-9.3,59.5-13.9,89.2c-1.7,9-2.4,18.1-4.3,27
	c-5.3,16.3-11.1,32.5-15.9,49c-1,3.4-2.7,6.6-3,10.2l1,0.6c3.2-1.3,5.6-3.9,8.5-5.7c6.7-4.4,12.6-9.9,17.8-16
	c-2.7-6.4-5.7-12.8-7.5-19.6c5.5-2,11.1-3.5,16.8-4.8c21.5-6.1,43.1-11.6,64.7-17.5c4.4-1.2,8.8-3.8,13.4-2.2
	c20.3,5.4,40.7,10.5,61.1,15.7c6,3.8,10.6,9.5,16.3,13.8c7.9,7.3,16.3,13.9,24.1,21.2c2.2-8.8,2.4-17.9,4-26.7
	c0.6-8.5,3.3-16.5,5.6-24.6c4-14.4,8.3-28.7,12.2-43.1c2.9,0.1,5.8,0.1,8.6,0.6c48.7,7.4,97.4,14.7,146,22.1c3.7,0.6,7.5,0.7,11,1.9
	c1.2,2.1,0.7,4.8,0.2,7.1c-7,26.1-14.4,52-21.1,78.1c-1,3.4-1.7,6.8-3,10.1c-9.1-1.2-18.1-3.8-27.2-5.3c-14.5-3-29-5.9-43.5-8.8
	c0-2.9,0.1-5.8,0.2-8.7c-8-1.3-16.1-2-24.2-3.1c-2.3,13.4-3.6,27-5.7,40.5c-1.9,14.2-4.6,28.3-5.4,42.6c18.9,0.9,37.6,2.9,56.5,4.2
	c-1,6.4-3.5,12.5-5.3,18.8c-5,16.1-10.2,32.2-15.3,48.3c-2.7,0-5.2-1.1-7.7-1.9c-9-2.5-17.9-5.6-27-8.1c-4.7-1.2-9.2-3.8-14.2-3.4
	c-3.9,24.2-8,48.4-11.9,72.7c-0.7,5.5-2,10.9-2.4,16.5c13.6,4.1,27.1,8.5,40.7,12.8c8.3,3.4,17.4,0.6,26.1,1.4
	c11.2-0.7,22.4-1.1,33.6-1c-2.7,13.5-6.3,26.9-9.4,40.4c-5.5,26.1-12.6,51.9-18,78c-6.8-1-12.5-5-18.8-7.3
	c-7.7-3.6-15.6-6.8-23.4-10.3c-3.3-1.4-6.8-1.7-10-3.2c-17.3-7.3-34.7-14.3-51.9-21.6c0.5-0.3,1.6-0.8,2.1-1.1
	c-14.5-6.4-29-12.7-43.5-19.2c0.2-12.5,2.3-24.8,2.9-37.2c1.9-22,3.7-43.9,5.8-65.9c0.4-5.3,0.4-10.8,1.9-15.9
	c2.7-4.5,6.5-8.3,9.1-12.9c-2.7-0.2-5.2,0.2-7.7,1.2c-21.8,7.5-43.6,15.2-65.5,22.7c2.9,6.5,7,12.4,8.9,19.3
	c-29,3.4-58.1,6.4-87.1,9.9c-3.7,0.5-6.1-2.7-8.8-4.6c-8.7-7.7-18.1-14.6-26.4-22.7c-2.7-2.3-6.6-3.9-7.4-7.7
	c-7.8-28.9-16.5-57.6-24.6-86.4c-0.5-1.5-1.3-2.8-2-4.2c-4,10.3-6.8,21-10.6,31.3c-2.3,7.6-5.4,15.1-7.1,22.9
	c-5,16.5-11.3,32.7-16.1,49.3c4.1,1.4,8.4,2.1,12.3,3.9c0.4,8.9-1.4,17.8-1,26.7c-0.9,8.3-1,16.7-1.2,25.1c-1,5.9-0.4,11.9-1.4,17.8
	c-0.8,7,0.1,14.1-1,21.1c-0.7,4.9,0.1,9.9-1.3,14.7c-21.8-2.3-43.7-4.8-65.5-7.2c-6.9-1.2-13.9-0.9-20.7-2.8
	c2.1-18.9,5.4-37.6,7-56.5c2.3-18.2,4.4-36.4,6.9-54.6c1.7-11.6,1.3-23.7,6.3-34.6c9.7-28.4,19.3-56.8,29-85.1
	c7.5-21,14.1-42.3,22.1-63c2.9-1.5,5.9-2.8,8.8-4.4c2-8.7,4.9-17.3,5.9-26.2c1.3-7.1,4-13.9,5.6-21c1.5-6,3.4-11.9,3.8-18.1
	c-10.8,8.3-20.5,18-31,26.7c-13.2,10.8-26,22.1-39.2,32.9c-7.5,6.5-15.8,12.3-21.8,20.2c-3,3.9-6.7,7.1-9,11.5
	c-1.4,3-4.4,4.9-5.8,7.9c3-2.3,5.3-5.2,8.3-7.5c0.5,0,1.4-0.1,1.9-0.2c-4.2,4-8,8.4-12.1,12.5c-4.1,4-7.6,8.6-12.4,11.8
	c-6.1,5.6-10.6,12.6-16.3,18.6c-4.2,5.6-8.8,11-13.3,16.4c-0.8,4-2.2,7.9-3.8,11.7c-1.3-2.6-2.6-5.3-2.9-8.2
	c-1-6.8-2.9-13.5-4.4-20.1c-5.5-25.6-12.2-51-17.1-76.8c-0.9-4.7-2.6-9.3-3.1-14.1c-0.8-5.4,4.5-9.2,4.4-14.5
	c-27.2-19.2-54.1-38.9-81.4-58c2.3,25,5.4,49.8,7.2,74.9c3,1.4,5.9,2.9,8.9,4.5c1.5,14.4,2.1,28.8,3.7,43.1
	c0.6,4.7,0.2,9.4,0.8,14.1c0.8,6.3,0.3,12.7,1.4,19c0.4,17,2.9,33.9,3.2,51c0.9,9.3,1.4,18.7,2.1,28c1.5,10.6,0.6,21.5,2.8,32.1
	c2.2,13.6,3.8,27.2,5.8,40.8c4.3,27.7,8.2,55.4,12.2,83.1c0.5,6.5,2.7,12.8,2.3,19.4c-5.8,0.1-11.5,0-17.2,0.3
	c-8.1,1.1-16.2,0.5-24.3,1c-9.6,1.4-19.4,0.1-29.1,1.4c-5.5,0.1-11.1,0.4-16.6,0.5c-1.6-9.5-1.8-19.1-2.9-28.7
	c-2.5-21.8-3.9-43.6-6.2-65.4c4.2-2.1,9-2.9,13.2-5.1c-1.9-10.4-3.3-21-4.3-31.6c-2.4-17.3-5.1-34.6-7.7-51.8
	c-1.5-14.4-4.1-28.7-5.4-43.2c-3.2-21.6-6.4-43.2-9.3-64.8c-0.9-10.4-3.2-20.6-3.9-31c-2.2-17.7-5.9-35.2-7.5-53
	c-1.6-9.3-0.5-18.7-1-28c-1.4-10.3-0.3-20.7-1-31c0.4-12.6-0.1-25.3,0-37.9c0.1-4.4-1.1-8.7-0.7-13.1C39.3,93.8,36.5,85.6,38.3,77.5
	z"/>
<path fill="#FBEF06" d="M895.6,87.8c2.9,1.1,5.3,3,7.7,5c8.6,16.1,14.2,33.9,16.1,52.1c0.1,4.7,1.1,9.4,0.3,14.1
	c-0.7,6.7-2.3,13.2-3.9,19.6c-0.7,0.1-2.2,0.4-2.9,0.6c-4.1,18.9-10.5,37.5-20.6,54c-5.5,8.2-11.3,16.6-19.3,22.6
	c-3.2,1.7-6.4,3.6-9.9,4.7c-4.9,0.9-9.9,1.6-14.8,1.2c2.8-3.1,5.5-6.2,8-9.5c-3.2,0.3-3.3-3.1-3.9-5.3c-1.1-5.2-2.6-10.6-1.4-16
	c1.2-4.3,0.1-8.7-0.1-13.1c-0.4-4.3-1-8.6-1.4-12.9c-1.8,0.4-3.7,0.9-5.5,1.4c-1.8-8.5-2.7-17.1-4.7-25.5c-1.9-7-2.4-14.3-5.4-21
	c-3.2-8.5-4.8-17.5-6.2-26.4c-0.8-6.5-1.7-13.3,0.9-19.5c1-2.2,1.4-4.5,1.7-6.8c3.1-0.6,6.1-1.2,9.2-1.8c3.2,4.1,5.5,8.7,7.9,13.3
	c0.3,0,0.9,0.1,1.2,0.1c4.8-3.8,9.1-8.1,13.8-12c2.1-2.6,5.6-2.2,8.5-3c2.8-2.4,4.2-6.4,7.5-8.2c5.5-1.1,11.2-1.1,16.7-2
	C895.3,91.6,895.5,89.7,895.6,87.8z"/>
<path fill="#6F5C5B" d="M0,97.8c0.9,2.3,1.2,4.8,1.1,7.2c-0.2,12.1,0.1,24.2-0.2,36.3L0,139.7V97.8z"/>
<path fill="#060203" d="M1076.9,127.6c7.2-2.1,15.3-1.2,21.9,2.5c8.3,4.4,14,13,15.2,22.3v6.8c-1.3,5.6-3.3,11.3-7.4,15.5
	c-7.1,7.9-18.8,11.7-29.1,8.8c-13.6-3.2-23.7-17.2-21.9-31.1C1056.7,140.9,1065.6,130.6,1076.9,127.6z"/>
<path fill="#FDFDFD" d="M1078.1,131.4c12.5-3.7,27,4.1,30.7,16.6c2.9,8.6,0.5,18.8-6,25.1c-5.3,5.4-13.1,8.2-20.5,7.4
	c-7.8-0.9-15.4-5.4-19.3-12.3c-3.8-6.3-4.5-14.3-1.9-21.1C1063.6,139.3,1070.4,133.5,1078.1,131.4z"/>
<path fill="#060203" d="M1072.1,135.4c5.9,0,11.8,0.1,17.7,0.7c3,1.1,5.3,3.4,7.2,5.9c1.4,5.1,0.3,11.9-5.5,13.6
	c3.9,5.6,8,11.2,10.9,17.4c-2.9,0-5.7,0.1-8.6-0.1c-1.5-0.9-1.8-2.8-2.7-4.2c-2.3-4-4.7-7.8-7.1-11.7c-0.9,0-2.6,0-3.5,0
	c-0.1,5.3,0.1,10.7-0.2,16.1c-2.8-0.1-5.6-0.1-8.4-0.1C1072.1,160.5,1071.9,147.9,1072.1,135.4z"/>
<path fill="#FDFDFD" d="M1080.5,142c3.8-0.3,7.2,1.5,10.2,3.5c-0.3,0.1-1,0.2-1.3,0.2c0.1,2.1,0.3,4.9-1.6,6.3
	c-2,1.7-4.9,0.7-7.3,0.9C1080.5,149.3,1080.5,145.6,1080.5,142z"/>
<path fill="#E22223" d="M954,216.7c15.7-1.4,31.2-4,46.9-5.3c5.3,18.7,9.4,37.8,14.4,56.6c0.7,3.1,2,6.3,1.2,9.4
	c-1.9,3.5-5.3,6-9,7.1c-5.8,1.9-11.5,3.9-17.3,5.6c-17.5,3.9-35.2,6.8-52.8,9.7c-1.9-3.8-3.2-7.9-5.1-11.7
	c-6.1,5.5-11.7,11.6-17.7,17.2c-0.3,1.9,0.2,3.9,0.6,5.8c1.7,7.1,2.9,14.4,4.7,21.5c1.3,3,5.4,2.9,7.8,4.8
	c9.9,6.9,19.8,14.1,28.4,22.6c7.9,6.4,14.7,14,22.4,20.6c13,13.3,26.7,26,39.1,39.8c2.2,2.5,5.2,4.4,6.8,7.4
	c0.4,7.4,0,14.9,0.2,22.3c-0.1,4.7,1.1,9.2,0.8,13.9c-0.3,19.7,0.4,39.4,0.1,59c-15.9,21.9-32.1,43.6-47.8,65.6
	c-1.5,2.1-2.8,4.6-5.2,5.8c-12.2,4.7-24.9,7.9-37.4,11.8c-12.7,3.6-25.1,7.8-38,10.7c-14.4,3.3-28.6,7.3-43,10.1
	c-4.9,0.6-11,1.8-14.5-2.7c0.5-7.2-1.5-14.3-2.9-21.3c-2.4-9.4-5.1-18.8-7.5-28.2c-4.2-12.2-7.8-24.7-12.2-36.8
	c-0.9-2.4-1.5-4.9-1.7-7.4c7.3,0,14.5,0.2,21.8-0.8c15,0.2,30-0.5,45-0.2c5.4,0.1,10.7-0.8,16-1.1c0.2-3.4-2.7-5.5-4.7-7.8
	c0.3-1.3,0.3-2.9,1.3-3.9c7.1-2.4,14.6-3.7,21.6-6.6c6.9-3.2,14.2-5.5,21.1-8.8c6.7-3,13.4-6.2,20.1-9.1c1.5-4.7,3.3-9.5,4-14.4
	c-0.6-4.1-2.9-7.7-4-11.6c-5.3-12.8-9.6-26.1-13.6-39.4c-2.9-7.7-9.3-13.2-14.4-19.4c-6.8-6.9-12.9-14.4-19.9-21.1
	c-3.2-3-5.9-6.6-9.5-9.1c-2.8,0.4-5.3,2.4-8.2,2.1c-6.1-4.4-12.7-8.3-18.1-13.6c0.5-0.1,1.6-0.4,2.1-0.5c-0.9-0.5-1.8-1-2.6-1.6
	c-8.1-6.6-15.8-13.9-24-20.3c0.5-8.6,3.3-16.9,4.5-25.4c2.4-11.1,4.3-22.3,7-33.4c13.6-1.1,25.6-8.6,35.4-17.6
	c5.5-5.6,10.4-11.9,14.3-18.8c6.2-8.5,10.3-18.2,14.4-27.7C934.4,218.6,944.3,218.2,954,216.7z"/>
<path fill="#060203" d="M548.3,275.4c5-1.3,9.7-3.5,14.8-4.1c14,25.6,29.2,50.5,43.3,76c1.4,4.2-2.3,7.6-3.8,11.2
	c-6,12.6-13,24.6-18.9,37.2c-0.7,1.2-1.1,2.6-2.3,3.5c-29.2,15.8-58.5,31.6-87.7,47.4c-1.5,1.1-3.4,0.9-5.1,0.9
	c-4.9-5.5-10.6-10.2-15.7-15.5c-5.5-5.1-11.5-10-15.9-16.2c-7.9-14.4-15.7-28.8-23.6-43.1c-1.5-3.1-3.9-6.2-2.9-9.8
	c2.9-18.8,6-37.6,9.1-56.3c25.2-7,50.2-14.6,75.4-21.5C526.1,281.8,537.2,278.5,548.3,275.4z"/>
<path fill="#FDFDFD" d="M722.4,331.4c1.5-7.6,3.2-15.1,5.1-22.6c24.5,4.8,49.1,9,73.6,13.7c5,0.8,9.8,2.1,14.8,2.6
	c-2.3,10.4-4.2,20.8-6.5,31.1c24.6,21.8,50.1,42.7,74.9,64.3c2.2-0.7,4.3-1.4,6.4-2.2c4.2,4.7,8.5,9.4,12.8,14.1
	c2.6,3.4,6.5,6.1,7.6,10.5c2.7,9,6.3,17.7,9.2,26.7c-2.6,1.1-5.3,2.1-7.9,3.3c-0.2,1.8-1.6,1.4-2.8,0.9
	c-10.4,4.9-21.7,7.2-32.3,11.6l-0.4,2.1c-0.4-0.1-1.1-0.3-1.5-0.4c1.9,1.9,0.1,4.5-0.4,6.7c-6,0.2-12-0.3-17.9,0.5
	c-7.7,0.2-15.4-0.1-23.1,0.1c-10.2,1.1-20.5-0.1-30.7,0.8c0.8-3.3,1.5-6.6,2.3-9.9c0.3-1,0.5-1.9,0.8-2.9c0.5-2.4,1-4.8,1.5-7.1
	c-7,0-14,0.9-21,0.6c-7.6,0.9-15.3,0.1-23,0.9c-9.7-0.1-19.3,0.7-29,0.6c-6.6,1.1-13.4-0.2-20,0.9c-4.4-1-8.6-2.8-13-3.8
	c0.7-6.5,1.7-13,3.3-19.4c14.4,4.9,29.2,9,43.7,13.8c12.1-39.5,23-79.4,35.3-118.8c0.1-0.9,1.3-2.7-0.2-3
	C763.5,341.8,742.9,336.6,722.4,331.4z"/>
<path fill="#4E9636" d="M475.5,338.5c22.7-6.5,45.4-13.1,68.1-19.5c6,10.3,11.7,20.8,17.8,31c-2.7,6.8-6.7,13-9.8,19.6
	c-18.6,9.7-36.8,20-55.4,29.7c-2-2.3-4.3-4.2-6-6.7c-6.1-10.9-11.7-22.1-18.1-32.9C472.9,352.5,474.3,345.5,475.5,338.5z"/>
<path fill="#060203" d="M312,677c5.5,0,10.9,0,16.4,0c0.3,11.2,0,22.5,0.2,33.8c7.4-5.6,17-11.1,26.5-7.4c3.9,2.8,8.5,5.7,9.7,10.7
	c1.1,5.2,1.4,10.6,1.3,15.9c0,13.7-0.1,27.4,0.1,41.1c-5.4-0.1-10.7,0-16-0.1c-0.1-13.3,0-26.7-0.1-40c0.1-2-0.6-3.9-1.2-5.7
	c-0.4,0.1-1.3,0.3-1.7,0.3c0.4-0.1,1.3-0.5,1.7-0.6c-1.3-1.4-2.7-2.6-4-3.9c-6.2-1.9-11.9,1.8-16.3,5.8c-0.1,14.7,0.2,29.5-0.1,44.2
	c-5.5-0.1-10.9,0-16.4,0C312,739.7,312,708.3,312,677z"/>
<path fill="#060203" d="M957,677c5.4-0.1,10.7,0,16.1-0.1c-0.2,20.7,0,41.4-0.1,62.1c-0.1,3.2,0.2,6.3,0.8,9.5
	c1.2,4.7,4.3,8.6,7.8,11.8c-4,3.8-7.8,7.9-11.9,11.7c-5.3-4.2-9.8-9.6-11.9-16.1c-1.1-5.2-0.7-10.6-0.8-15.9
	C957,719,957,698,957,677z"/>
<path fill="#060203" d="M1008,677c5.3,0,10.7,0,16,0c0,21.3,0,42.7,0,64.1c0.2,3.6,0.4,7.5,2,10.8c1.9,3,4.2,5.6,6.6,8.2
	c-3.9,3.8-7.3,8.1-11.2,11.9c-2.6-1.8-4.9-4-6.8-6.5c-5.3-4.5-6.2-12-6.6-18.5C1008,723.6,1008,700.3,1008,677z"/>
<path fill="#060203" d="M908.5,679.5c5.5-0.1,10.9,0,16.4-0.1c0.3,5.9,0.1,11.7,0.1,17.6c-5.5-0.1-11,0-16.5-0.1
	C908.5,691.1,908.5,685.3,908.5,679.5z"/>
<path fill="#060203" d="M259.9,683.7c5.3-1,10.8-0.7,16.1-1.7c0,7.9,0,15.7,0,23.6c2.8,0,5.7,0,8.5,0c0,4,0,8,0,12
	c-2.8,0-5.6,0-8.4,0c-0.1,7.2-0.1,14.4-0.1,21.6c0.2,8,3.2,16.6,10.6,20.7c-4.3,4-8.1,8.6-12.3,12.8c-8.6-4.4-14-13.9-14.2-23.4
	c-0.4-10.5,0-21.1-0.2-31.6c-1.8,0-3.6,0-5.4,0c0-4.2,0-8.3,0-12.4c1.8,0,3.7-0.1,5.5-0.1C260,697.9,260.1,690.8,259.9,683.7z"/>
<path fill="#060203" d="M666.1,683.6c5.5-0.5,11-1,16.5-1.5c-0.1,7.8,0,15.6,0,23.5c2.8-0.1,5.6-0.1,8.4-0.1c0.1,4,0.1,8.1,0,12.1
	c-2.8,0-5.6,0-8.4,0c0,7.1,0,14.3,0,21.4c-0.1,4.4,0.7,8.9,2.5,12.9c2.2,2.9,4.7,5.5,7.5,7.8c-4.2,4-7.5,9-12,12.8
	c-9-5-14-15.3-14.4-25.4c-0.4-9.9,0-19.8-0.2-29.6c-1.8,0-3.6,0-5.4,0c0-4.2,0-8.3,0-12.5c1.8,0,3.7,0,5.5,0
	C666,697.9,665.9,690.7,666.1,683.6z"/>
<path fill="#060203" d="M27.2,703.1c3.3-0.6,6.5-1.1,9.8-1.5c5.6,0.3,11.1,1.5,16.5,2.9c0.1,5.5,0,11,0,16.4
	c-6.1-2.1-12.5-4.3-19-3.6c-2.8,0.3-5.2,1.8-7.1,3.9c0.7,2.2,1.4,4.8,3.7,5.9c3.6,0.9,7.3,1.5,11,2.4c5,0.8,9.6,3.6,13.3,7.1
	c4,6.8,3.9,15.3,1.1,22.5c-2,5.2-6.7,8.8-11.5,11.3c-7.6,2.3-15.7,1.5-23.5,0.1c-3-0.9-6.5-1.6-8.9-3.8c-0.4-5.2,0.4-10.4-0.3-15.5
	l-0.9-1c4.7,1.7,8.8,4.7,13.7,5.9c5.1,1,10.6,1.7,15.5-0.5c3.6-1.8,4-7.7,1.3-10.4c-6.7-3.5-15.3-1.4-21.5-6.3
	c-3.1-1.7-4.1-5.3-6.1-8c-1.3-5.4-1.5-11.2,0.5-16.5c1.4-2.2,2.9-4.3,4.6-6.2C21.6,706.1,24.6,704.9,27.2,703.1z"/>
<path fill="#060203" d="M89.6,716.4c3.9-7.2,11.1-13.1,19.3-14.3c5.5,0,11.2-0.9,16.3,1.6c10.3,3.3,16.8,13.6,18.5,23.8
	c1.5,9.1,0.9,18.6-2.1,27.3c0.3,0.2,0.8,0.5,1.1,0.7c-1.8-0.2-2.3,1.8-3.1,3c-3.9,6.1-9.6,11.8-17.1,12.9c-9.4,1.4-20.1,1.3-27.9-5
	c-3.7-4.2-7-8.9-8.7-14.3C83.2,740.3,83.2,727.1,89.6,716.4z"/>
<path fill="#060203" d="M530,702.7c2.9-1.1,6-0.6,9-0.7c8.6-0.4,16.5,5.4,20.6,12.6c4.9,7.9,6.6,17.3,6.3,26.5
	c-14.3,0-28.6-0.1-42.9,0.1c1.2,3.3,1.5,7.1,4,9.7c1.5,2.5,4.4,3.4,6.9,4.7c8.1,1,17.3,0.1,24-5c0.1-0.4,0.4-1.1,0.6-1.4
	c-0.3,5.9-0.1,11.8-0.1,17.7c-2.2,1.7-4.7,2.8-7.4,3.4c-9.1,2.2-19.3,3.1-28-1.3c-5.1-2.1-8.1-7-11.3-11.1c-3.5-6-4.2-13.2-5.4-19.9
	c1-6.5,1.6-13.1,4.3-19.2c0.8-3.1,4-4.5,5.1-7.4C519.4,706.8,524.7,704.5,530,702.7z"/>
<path fill="#060203" d="M592.6,716.2c3.6-10.5,15.8-15.9,26.3-14.3c4.4,0.3,8.7,1.4,12.9,2.5c0.3,5.5,0.1,11,0.1,16.5
	c-8.2-2.9-19-7-26.2,0.1c0.7,2.5,1.8,5.4,4.5,6.2c3.4,0.8,6.9,1.4,10.3,2.2c5,0.7,9.4,3.6,13.1,6.9c4,6.5,3.9,14.7,1.7,21.7
	c-2,5.8-7,9.9-12.4,12.5c-3.3,0.7-6.6,1.3-10,1.4c-7.5-0.7-15.8-0.8-22.2-5.3c0.4-5.4,0.1-10.8,0.2-16.2c5.6,3,11.4,6.2,17.9,6.4
	c4.3,0.4,9.2,0.1,12.5-3.2c0.6-2.8,1.5-6.8-1.6-8.5c-5.7-3.5-13.2-1.6-19-5C592.3,735.8,590,724.8,592.6,716.2z"/>
<path fill="#060203" d="M391.3,710.8c4.8-3.1,10-5.3,15-8.2c4.7,14.2,8.8,28.5,13.9,42.6c4-13.2,7.4-26.6,11.4-39.8
	c4.5,0,9.1,0,13.6,0.1c3,10.8,5.6,21.8,8.9,32.5l-1.6,0.1c1.2,2.3,2.2,4.8,3.6,7.1c5-14.2,9.6-28.5,14.4-42.7
	c4.6,2.8,9.3,5.3,13.9,8c-7.1,20.2-14.7,40.3-21.8,60.5c-4.7,0.1-9.4,0-14.1,0c-2.9-10.1-6.1-20-9-30c-0.5-1.9-1.2-3.8-2.1-5.5
	c-1.4,5.4-3.3,10.8-4.6,16.2c0.2,0.2,0.6,0.7,0.9,0.9c-0.4,0.3-1.1,0.8-1.5,1.1c-1.8,5.8-3.4,11.5-5.1,17.3c-4.7,0.1-9.3,0.1-14,0
	C406,750.8,398.6,730.8,391.3,710.8z"/>
<path fill="#060203" d="M771.5,704.7c5-3,11.2-2.6,16.6-1.2c3.3,0.8,5.8,3.2,8.9,4.5c3.3-0.6,6.2-2.5,9.3-3.8c3.7,1,2.6,4.9,2.8,7.9
	c0,17,0,34,0,51c0.1,5.5-1.6,10.9-4,15.8c-4,6-10.7,9.4-17.2,12.2h-15.4c0-3.7,0-7.3,0-11c6.1,0,13,0.5,18.2-3.4
	c3-3.5,2.1-8.6,2.4-12.8c-3.9,3.5-8.5,7.4-14.1,6.7c-5.7-0.6-11.7-2.2-15.7-6.7c-7.4-7.9-8.8-19.4-8.5-29.7
	C755.2,722.5,760.5,710,771.5,704.7z"/>
<path fill="#060203" d="M857.6,710.8c4.5-3.1,8.9-6.6,14.3-7.7c3.1-0.3,6.1,0.3,9.2,0.9c0,7-0.1,14,0,21c-4.2-2.6-9.2-4.1-14.1-3
	c-3.7,0.3-6.6,2.9-9.5,4.9c0.1,14.7,0,29.4,0,44.1c-5.5,0-11,0.1-16.5,0c-0.1-21.8,0-43.5,0-65.3c5.5-0.7,11-0.9,16.5-1.6
	C857.5,706.3,857.5,708.5,857.6,710.8z"/>
<path fill="#060203" d="M908.5,705.5c5.5,0,10.9-1,16.4-1.2c0.1,22.2-0.1,44.5,0.1,66.7c-5.5-0.1-11.1,0-16.6-0.1
	C908.6,749.1,908.5,727.3,908.5,705.5z"/>
<path fill="#060203" d="M173.1,705.5c5.5,0.1,10.9,0,16.4,0.1c0,12.5,0,25,0,37.4c0,1.9,0.2,3.8,0.5,5.7c1.2,1.8,2.6,3.6,4,5.3
	c6.2,1.5,12.8-0.3,17-5.2c-0.1-14.4,0.1-28.8-0.1-43.2c5.3-0.1,10.7,0,16-0.1c0.2,21.8,0.1,43.7,0.1,65.5c-5.3,0.1-10.7,0-16,0.1
	c0.1-2.4,0-4.8-0.1-7.2c-6.7,5.1-15.1,8.7-23.7,7.5c-4.6-1.7-9-4.9-11.2-9.4c-1.3-3-2.1-6.1-2.7-9.3
	C172.7,736.9,173.1,721.2,173.1,705.5z"/>
<path fill="#FDFDFD" d="M106.1,719.5c4.8-3.3,12.1-3.6,16.4,0.7c2.3,1.9,3.2,4.9,4.3,7.6c-0.4,0-1.1,0-1.5,0.1
	c0.4,0.2,1.1,0.5,1.5,0.6c2,7.9,1.3,16.4-1.6,23.9c-3.8,5-11.2,6.4-16.9,3.8c-7.9-6.5-8.2-17.8-7.3-27.2
	C102.6,725.8,103.1,721.8,106.1,719.5z"/>
<path fill="#FDFDFD" d="M529.5,719.5c4.3-2.1,9.8-2.9,14,0c4.5,2.6,6.5,7.8,7.6,12.6c-9.3-0.1-18.5,0.2-27.8-0.2
	c0.5-1.9,0.9-3.8,1.5-5.7C526.3,723.9,527,720.9,529.5,719.5z"/>
<path fill="#FDFDFD" d="M775.5,721c3.2-2.9,7.9-3.6,12.1-2.8c2.5,0.6,4.1,2.8,5.9,4.5c0,9.2,0,18.5,0,27.7
	c-4.5,4.5-12.2,5.4-17.3,1.5c-2.5-2.7-3.2-6.3-4.7-9.5C771,735.1,770.5,727,775.5,721z"/>
<path fill="#060203" d="M1070.5,736.6c5.4-1.4,11.1-0.4,16.1,2c7.6,3.8,12.8,11.9,13,20.4c0.2,7.2-3.2,14.4-8.9,18.8
	c-6.4,5.2-15.6,6.6-23.2,3.7c-10.6-3.5-17.4-15.6-15-26.5C1054.1,746,1061.5,738.3,1070.5,736.6z"/>
<path fill="#FDFDFD" d="M1072.7,739.7c10-1.7,20.6,5.3,22.8,15.3c1.6,6.4-0.6,13.1-4.6,18.1c-4.4,4.3-10.7,6.8-16.9,6.4
	c-7.1-0.7-13.8-5.2-16.7-11.8c-4.2-8.6-0.8-19.9,7.3-24.9l0.3,0.4c0.2,10.1-0.1,20.2,0.1,30.4c2.3-0.1,4.6-0.1,6.9-0.1
	c0-4.4-0.1-8.9,0.2-13.3c3.5,0.2,4.5,4,6.1,6.5c1.5,2.3,2.6,4.9,4.5,6.9c2.3,0.1,5,0.6,6.8-1.3c-2-2.3-3.5-5-5.1-7.6
	c-0.8-2-2-3.7-3.4-5.2c3.3-1.5,5.5-4.8,4.8-8.4c-0.3-4-3.8-7.3-7.9-7.4c-3.9-0.6-7.9-0.2-11.8-0.7c-0.5-2.1,2.8-1.5,3.9-2.4
	c0.1,0.3,0.3,0.9,0.4,1.3C1070.6,740.4,1071.4,739.7,1072.7,739.7z"/>
<path fill="#FDFDFD" d="M1072,747.8c2.1,0.2,4.2,0.8,6.3,1.3c0.6,2.3,0.7,4.7,0.1,7.1c-2.1,0.7-4.3,0.9-6.5,0.9
	C1072,754,1072,750.9,1072,747.8z"/>
</svg>
