<?xml version="1.0" encoding="utf-8"?>
<!-- Generator: Adobe Illustrator 17.1.0, SVG Export Plug-In . SVG Version: 6.00 Build 0)  -->
<!DOCTYPE svg PUBLIC "-//W3C//DTD SVG 1.1//EN" "http://www.w3.org/Graphics/SVG/1.1/DTD/svg11.dtd">
<svg version="1.1" id="Layer_1" xmlns="http://www.w3.org/2000/svg" xmlns:xlink="http://www.w3.org/1999/xlink" x="0px" y="0px"
	 viewBox="0 0 2895.5 1639.9" enable-background="new 0 0 2895.5 1639.9" xml:space="preserve">
<g id="_x34__16_">
	<path fill="#FF5000" d="M2196.2,0c-61.2,0-114.5,33.8-142.3,83.8l-3.4,6.7l-127.9,251.8L1761,660.6l105.8,208.5l5.9,11.5
		c16.2,28.8,40.9,52.1,70.7,66.8c29.7-14.6,54.4-38,70.7-66.8l5.8-11.5l317.6-625.6l7.7-15c8.9-20.1,13.9-42.3,13.9-65.7
		C2359.1,72.9,2286.2,0,2196.2,0z"/>
	<path fill="#FF5000" d="M1216.4,302.8L1111,95.2l-5.8-11.5c-16.2-28.7-40.9-52-70.5-66.7c-29.7,14.7-54.2,37.9-70.4,66.6l-5.9,11.5
		L640.7,720.7l-7.6,15c-8.9,20.1-13.9,42.3-13.9,65.7c0,89.9,72.9,162.8,162.8,162.8c61.2,0,114.5-33.9,142.3-83.8l3.4-6.7
		l127.9-251.8L1217,304L1216.4,302.8z"/>
	<linearGradient id="SVGID_1_" gradientUnits="userSpaceOnUse" x1="1840.6415" y1="899.5606" x2="2255.1143" y2="10.7207">
		<stop  offset="0" style="stop-color:#D4202C"/>
		<stop  offset="9.351408e-02" style="stop-color:#DA462B;stop-opacity:0.9065"/>
		<stop  offset="0.2206" style="stop-color:#E26729;stop-opacity:0.7794"/>
		<stop  offset="0.3537" style="stop-color:#E97E27;stop-opacity:0.6463"/>
		<stop  offset="0.4926" style="stop-color:#F08F24;stop-opacity:0.5074"/>
		<stop  offset="0.6395" style="stop-color:#F59C21;stop-opacity:0.3605"/>
		<stop  offset="0.8001" style="stop-color:#F9A41E;stop-opacity:0.1999"/>
		<stop  offset="1" style="stop-color:#FAA71D;stop-opacity:0"/>
	</linearGradient>
	<path fill="url(#SVGID_1_)" d="M2195.9,0c-61.2,0-114.5,33.8-142.3,83.8l-3.4,6.7l-127.9,251.8l-161.6,318.3l105.9,208.5l5.8,11.5
		c16.3,28.8,40.9,52.1,70.7,66.8c29.7-14.6,54.4-38,70.7-66.8l5.8-11.5l317.7-625.6l7.6-15c8.9-20.1,13.9-42.3,13.9-65.7
		C2358.7,72.9,2285.9,0,2195.9,0z"/>
	
		<linearGradient id="SVGID_2_" gradientUnits="userSpaceOnUse" x1="3399.6763" y1="2522.3921" x2="3814.1606" y2="1633.5276" gradientTransform="matrix(-1 0 0 -1 4536.8921 2587.1194)">
		<stop  offset="0" style="stop-color:#D4202C"/>
		<stop  offset="9.351408e-02" style="stop-color:#DA462B;stop-opacity:0.9065"/>
		<stop  offset="0.2206" style="stop-color:#E26729;stop-opacity:0.7794"/>
		<stop  offset="0.3537" style="stop-color:#E97E27;stop-opacity:0.6463"/>
		<stop  offset="0.4926" style="stop-color:#F08F24;stop-opacity:0.5074"/>
		<stop  offset="0.6395" style="stop-color:#F59C21;stop-opacity:0.3605"/>
		<stop  offset="0.8001" style="stop-color:#F9A41E;stop-opacity:0.1999"/>
		<stop  offset="1" style="stop-color:#FAA71D;stop-opacity:0"/>
	</linearGradient>
	<path fill="url(#SVGID_2_)" d="M781.9,964.3c61.2,0,114.6-33.8,142.3-83.8l3.4-6.7L1055.5,622l161.6-318.3L1111.3,95.2l-5.8-11.5
		c-16.3-28.8-41-52.1-70.7-66.8c-29.7,14.6-54.5,38-70.7,66.8l-5.8,11.5L640.7,720.8l-7.7,15c-8.9,20.1-13.9,42.3-13.9,65.7
		C619.1,891.4,692,964.3,781.9,964.3z"/>
	<path fill="#FF8C44" d="M1216.4,302.8L1111,95.2l-5.8-11.5c-16.3-28.8-41-52.1-70.7-66.8c9.8-4.8,20.1-8.7,30.9-11.5
		c13.1-3.4,26.9-5.3,41.1-5.3c0.1,0,0.1,0,0.2,0h0.1h218.8c0.3,0,0.8,0,1.1,0c0.4,0,0.7,0,1.1,0c60.9,0.4,113.9,34,141.9,83.6
		l5.9,11.5l285.9,566.2L1867,869.1l5.8,11.5c16.3,28.8,41,52.1,70.7,66.8c-9.8,4.8-20.2,8.7-30.9,11.5c-13.2,3.4-26.9,5.3-41.1,5.3
		c0,0-0.2,0-0.2,0s-0.1,0-0.2,0l-218.8,0c-0.4,0-0.7,0.1-1.1,0.1s-0.7-0.1-1.1-0.1c-60.9-0.4-113.9-34-141.9-83.6l-5.9-11.5
		L1216.4,302.8z"/>
</g>
<g id="wht_20_">
	<path fill="#6D6E71" d="M0,1241.1c0-9.6,5.4-15.1,15.1-15.1h10.9c9,0,14.4,5.5,14.4,15.1v35c0,12-2.4,21.7-2.4,21.7h1.2
		c11.4-27.7,51.2-79,122.3-79c75.3,0,101.9,42.8,101.9,117.5V1514c0,9.6-5.4,15.1-15.1,15.1h-11.4c-9.6,0-14.5-5.4-14.5-15.1v-166.9
		c0-47.6-7.8-89.8-66.3-89.8c-64.5,0-115.1,53.1-115.1,123.6V1514c0,9.6-4.8,15.1-14.5,15.1H15.1c-9.7,0-15.1-5.4-15.1-15.1V1241.1z
		"/>
	<path fill="#6D6E71" d="M483.9,1343.5h17.5v-9.6c0-58.5-31.9-78.3-74.7-78.3c-33.7,0-59.6,12.6-73.5,21.1c-8.5,4.2-15.1,3-20.5-4.8
		l-3.6-6c-4.8-7.8-3.6-15.6,4.2-20.5c15.7-9.6,49.4-26.5,96.4-26.5c72.3,0,112.7,40.4,112.7,116.3v179c0,9.6-4.9,15.1-14.5,15.1
		h-9.7c-9.7,0-15.1-4.8-15.1-15.1v-24.1c0-13.8,1.8-22.9,1.8-22.9h-1.2c0.6,0-27.1,69.3-102.5,69.3c-51.2,0-102.4-30.1-102.4-88.6
		C298.9,1349,425.5,1343.5,483.9,1343.5z M408.6,1502c58.5,0,92.8-60.2,92.8-113.3v-14.5h-16.9c-47.6,0-143.4,1.8-143.4,69.9
		C341.1,1472.5,363.4,1502,408.6,1502z"/>
	<path fill="#6D6E71" d="M600.8,1241.1c0-9.6,5.4-15.1,15.1-15.1h10.9c9,0,14.5,5.5,14.5,15.1v35c0,12-2.4,21.7-2.4,21.7h1.2
		c15.1-41,63.9-79,111.5-79c56,0,85,25.9,93.4,75.9h1.2c16.9-38.6,60.9-75.9,111.5-75.9c73.5,0,100.6,42.8,100.6,117.5V1514
		c0,9.6-5.4,15.1-15,15.1h-10.9c-9.6,0-15.1-5.4-15.1-15.1v-167.5c0-49.4-10.2-90.4-65-90.4c-60.9,0-101.8,63.9-101.8,126.6V1514
		c0,9.6-4.8,15.1-14.5,15.1h-11.5c-9.6,0-15-5.4-15-15.1v-167.5c0-45.8-6.6-90.4-63.9-90.4c-61.5,0-103.6,65.1-103.6,126.6V1514
		c0,9.6-4.8,15.1-14.5,15.1h-11.5c-9.6,0-15.1-5.4-15.1-15.1V1241.1z"/>
	<path fill="#6D6E71" d="M1246.2,1218.8c80.7,0,126.5,58.5,126.5,144.6c0,8.4-6.6,15-15.7,15h-218.2
		c1.8,77.2,54.8,121.1,117.5,121.1c38,0,65.7-16.8,79.5-27.7c8.4-5.4,15.1-4.2,19.9,3.6l4.8,7.3c4.2,7.2,3,14.4-4.2,19.9
		c-16.3,12.1-52.4,33.7-101.2,33.7c-90.4,0-158.5-65.1-158.5-158.5C1096.7,1278.4,1164.2,1218.8,1246.2,1218.8z M1331.1,1347.7
		c-2.4-63.9-41-95.2-86.2-95.2c-50.6,0-94.6,33.8-104.2,95.2H1331.1z"/>
	<path fill="#6D6E71" d="M1567.9,1218.8c51.8,0,85.6,22.3,100.7,34.3c7.2,5.4,7.8,12.7,1.8,20.5l-4.2,6.7c-5.4,8.4-12.1,8.4-20.5,3
		c-13.3-10.3-39.8-27.8-76.5-27.8c-66.3,0-118.1,50-118.1,122.3c0,71.7,51.8,121.7,118.7,121.7c42.2,0,71.2-19.9,85.6-32
		c7.8-6,14.4-4.8,19.9,3.6l4.2,6.1c4.8,7.8,3,14.4-3.6,20.4c-15.6,12.7-51.8,38.6-107.9,38.6c-90.4,0-159.1-64.5-159.1-158.5
		C1408.9,1284.5,1478.2,1218.8,1567.9,1218.8z"/>
	<path fill="#6D6E71" d="M1720.4,1120.6c0-9.6,4.8-15.1,14.4-15.1h11.5c9.6,0,15.1,5.4,15.1,15.1v151.3c0,13.8-2.4,24.7-2.4,24.7
		h1.2c11.4-28.4,52.4-77.8,121.1-77.8c75.3,0,101.9,42.8,101.9,117.5V1514c0,9.6-4.8,15.1-14.5,15.1h-11.4
		c-9.7,0-15.1-5.4-15.1-15.1v-166.9c0-47.6-7.2-89.8-66.3-89.8c-63.9,0-114.5,52.5-114.5,125.4V1514c0,9.6-5.4,15.1-15.1,15.1h-11.5
		c-9.6,0-14.4-5.4-14.4-15.1V1120.6z"/>
	<path fill="#6D6E71" d="M2171.8,1218.8c80.8,0,126.5,58.5,126.5,144.6c0,8.4-6.6,15-15.7,15h-218.2
		c1.8,77.2,54.8,121.1,117.5,121.1c38,0,65.7-16.8,79.6-27.7c8.4-5.4,15.1-4.2,19.9,3.6l4.8,7.3c4.2,7.2,3,14.4-4.2,19.9
		c-16.3,12.1-52.5,33.7-101.3,33.7c-90.4,0-158.5-65.1-158.5-158.5C2022.3,1278.4,2089.8,1218.8,2171.8,1218.8z M2256.7,1347.7
		c-2.4-63.9-41-95.2-86.1-95.2c-50.7,0-94.6,33.8-104.3,95.2H2256.7z"/>
	<path fill="#6D6E71" d="M2501.9,1343.5h17.5v-9.6c0-58.5-31.9-78.3-74.7-78.3c-33.7,0-59.6,12.6-73.5,21.1
		c-8.4,4.2-15.1,3-20.4-4.8l-3.6-6c-4.8-7.8-3.6-15.6,4.2-20.5c15.6-9.6,49.5-26.5,96.4-26.5c72.3,0,112.7,40.4,112.7,116.3v179
		c0,9.6-4.8,15.1-14.5,15.1h-9.6c-9.6,0-15.1-4.8-15.1-15.1v-24.1c0-13.8,1.8-22.9,1.8-22.9h-1.2c0.5,0-27.1,69.3-102.5,69.3
		c-51.3,0-102.5-30.1-102.5-88.6C2317,1349,2443.5,1343.5,2501.9,1343.5z M2426.6,1502c58.4,0,92.8-60.2,92.8-113.3v-14.5h-16.9
		c-47.6,0-143.5,1.8-143.5,69.9C2359.1,1472.5,2381.4,1502,2426.6,1502z"/>
	<path fill="#6D6E71" d="M2619.5,1241.1c0-9.6,4.8-15.1,14.5-15.1h9.6c9.6,0,14.5,5.5,14.5,13.9v21.7c0,12-1.8,20.5-1.8,20.5h1.2
		c0,0,25.9-63.3,106-63.3c81.4,0,132,65.1,132,159.1c0,95.8-57.3,158.5-136.2,158.5c-73.5,0-100-61.5-100-61.5h-1.2
		c0,0,2.4,10.9,2.4,26.5v123.5c0,9.6-5.4,15.1-15.1,15.1H2634c-9.6,0-14.5-5.4-14.5-15.1V1241.1z M2755.1,1499.6
		c54.2,0,98.2-44.6,98.2-121.7c0-74.1-39.8-121.7-95.8-121.7c-50.6,0-98.2,36.2-98.2,122.3C2659.2,1439.3,2693,1499.6,2755.1,1499.6
		z"/>
</g>
</svg>
