<?xml version="1.0" encoding="utf-8"?>
<!-- Generator: Adobe Illustrator 17.1.0, SVG Export Plug-In . SVG Version: 6.00 Build 0)  -->
<!DOCTYPE svg PUBLIC "-//W3C//DTD SVG 1.1//EN" "http://www.w3.org/Graphics/SVG/1.1/DTD/svg11.dtd">
<svg version="1.1" id="Layer_1" xmlns="http://www.w3.org/2000/svg" xmlns:xlink="http://www.w3.org/1999/xlink" x="0px" y="0px"
	 viewBox="0 0 577.9 124.3" enable-background="new 0 0 577.9 124.3" xml:space="preserve">
<g>
	<path fill="#47535B" d="M165.5,91.4c-10.8,0-15.7-7.4-15.7-17.2V39.7c0-3.4,2.5-6.1,5.9-6.1c3.2,0,5.9,2.7,5.9,6.1v5.9h10.9
		c2.9,0,5.4,2.2,5.4,5.2c0,2.9-2.5,5.1-5.4,5.1h-10.9v18c0,4.2,1.8,6.5,5.7,6.5c1.9,0,3.8-0.5,5.4-1c4.5-1,7.2,1.7,7.2,5
		c0,1.9-1,3.9-3.7,5.2C173.1,91,168.8,91.4,165.5,91.4z"/>
	<path fill="#47535B" d="M216.3,50.1c0,2.4-1.8,5.5-5.5,5.5c-2,0-3.9-0.9-6.5-0.8c-2.9,0.1-4.5,1.7-4.5,5.7v24.7
		c0,3.3-2.5,5.9-5.9,5.9c-3.2,0-5.9-2.6-5.9-5.9V58.3c0-9.1,5.3-14.9,15.4-14.9c2.9,0,5.8,0.3,7.5,0.7
		C214.5,45,216.3,47.2,216.3,50.1z"/>
	<path fill="#47535B" d="M261.7,65.6c0,3.4-1.7,5.9-6,5.9h-23.2v0.9c0,5.5,4.2,8.5,10,8.5c3.1,0,6.4-0.8,9.3-1.9
		c4.6-1.7,7.7,1.4,7.7,4.6c0,1.7-0.6,3.5-3,4.9c-3.2,1.9-8.8,3.1-14.4,3.1c-12.1,0-20.2-7.6-21-18.5c-0.3-3.4-0.2-8.2,0-10.9
		c1-11.4,9.2-18.6,20.6-18.6c11.9,0,20,7.9,20,20.3V65.6z M249.5,63.5c0.6,0,1-0.3,1-1c0.3-5.3-3.1-8.9-8.7-8.9
		c-6.2,0-9.3,3.9-9.3,10H249.5z"/>
	<path fill="#47535B" d="M311.1,65.6c0,3.4-1.7,5.9-6,5.9h-23.2v0.9c0,5.5,4.2,8.5,10,8.5c3.1,0,6.4-0.8,9.3-1.9
		c4.6-1.7,7.7,1.4,7.7,4.6c0,1.7-0.6,3.5-3,4.9c-3.2,1.9-8.8,3.1-14.4,3.1c-12.1,0-20.2-7.6-21-18.5c-0.3-3.4-0.2-8.2,0-10.9
		c1-11.4,9.2-18.6,20.6-18.6c11.9,0,20,7.9,20,20.3V65.6z M298.9,63.5c0.6,0,1-0.3,1-1c0.3-5.3-3.1-8.9-8.7-8.9
		c-6.2,0-9.3,3.9-9.3,10H298.9z"/>
	<path fill="#47535B" d="M332.8,46.8c1.9-1.7,6.4-3.4,11-3.4c11.1,0,17.6,6.6,17.6,19.1V85c0,3.5-2.4,6.2-5.9,6.2
		c-3.2,0-5.8-2.7-5.8-6.2V63.1c0-5.3-3.1-8.3-7.9-8.3c-3.7,0-7.2,1.7-9.1,3.7v26.6c0,3.3-2.4,6-5.8,6c-3.2,0-5.9-2.7-5.9-6V34
		c0-3.4,2.5-6,5.9-6c3.2,0,5.9,2.6,5.9,6V46.8z"/>
	<path fill="#47535B" d="M392.7,91.4c-11.4,0-20.1-7.3-21-17.7c-0.3-3.5-0.3-9,0-12.5c0.9-10.5,9.5-17.8,21-17.8
		c11.5,0,20,7.3,20.9,17.8c0.3,3.5,0.3,8.9,0,12.4C412.7,84.1,404.2,91.4,392.7,91.4z M401.9,63c-0.3-5-3.8-8.5-9.3-8.5
		c-5.5,0-8.9,3.5-9.3,8.5c-0.2,2.4-0.2,6.5,0,8.7c0.4,5,3.8,8.5,9.3,8.5c5.5,0,8.9-3.5,9.3-8.5C402.1,69.5,402.1,65.4,401.9,63z"/>
	<path fill="#47535B" d="M423.7,49.9c0-3.5,2.1-6.2,5.8-6.2c3.3,0,5.9,2.7,5.9,6.2v22.3c0,5.2,3.4,8.1,8.4,8.1
		c3.8,0,6.7-1.1,8.6-2.3V49.7c0-3.3,2.4-6,5.9-6c3.2,0,5.9,2.7,5.9,6v32.7c0,2-0.5,3.1-2.1,4.1c-2.7,1.9-9.1,5-18.4,5
		c-12.6,0-19.8-6.8-19.8-19.1V49.9z"/>
	<path fill="#47535B" d="M510.2,76.2c0,9.8-8.1,15.2-18.3,15.2c-8.2,0-13.4-2.4-16.7-5.1c-2.1-1.7-2.7-5.1-1-7.2
		c1.7-2.4,4.7-2.9,7.6-1c2.7,1.7,6.3,2.9,10.4,2.9c4.5,0,6.6-1.7,6.6-4c0-1.9-1.4-3.2-5.1-4.1c-3.1-0.7-3.1-0.6-6.5-1.5
		c-7.2-1.8-12.8-5.9-12.8-13.4c0-9.4,7.6-14.6,17.8-14.6c5.5,0,11.2,1.4,14.2,3.9c2.5,2.1,2.4,5.7,0.5,7.8c-1.7,1.9-4.7,2.2-7.6,0.7
		c-2.3-1.1-5.3-1.9-7.6-1.9c-4.4,0-6.2,1.7-6.2,3.8c0,1.8,1.3,3.1,5.2,3.9l6.2,1.4C505.9,65,510.2,69.3,510.2,76.2z"/>
	<path fill="#47535B" d="M558.7,65.6c0,3.4-1.7,5.9-6,5.9h-23.2v0.9c0,5.5,4.2,8.5,10,8.5c3.1,0,6.4-0.8,9.3-1.9
		c4.6-1.7,7.7,1.4,7.7,4.6c0,1.7-0.6,3.5-3,4.9c-3.2,1.9-8.8,3.1-14.4,3.1c-12.1,0-20.2-7.6-21-18.5c-0.3-3.4-0.2-8.2,0-10.9
		c1-11.4,9.2-18.6,20.6-18.6c11.9,0,20,7.9,20,20.3V65.6z M546.4,63.5c0.6,0,1-0.3,1-1c0.3-5.3-3.1-8.9-8.7-8.9
		c-6.2,0-9.3,3.9-9.3,10H546.4z"/>
</g>
<g>
	<path fill="#47535B" d="M566.2,50.5c0,0.6-0.4,1-1,1c-0.6,0-1-0.5-1-1v-4.7h-1.5c-0.5,0-0.9-0.4-0.9-0.9c0-0.6,0.4-1,0.9-1h5
		c0.5,0,0.9,0.4,0.9,1c0,0.5-0.4,0.9-0.9,0.9h-1.5V50.5z M572.3,45.1l0.9,3.8l0.9-3.8c0.2-0.8,0.8-1.2,1.5-1.2
		c0.8,0,1.4,0.5,1.6,1.4l0.8,5c0.1,0.6-0.1,1.2-0.7,1.3c-0.7,0.1-1.2-0.3-1.2-0.9l-0.5-4.2l-1,3.9c-0.2,0.7-0.6,1.1-1.3,1.1
		c-0.6,0-1.1-0.4-1.3-1.1l-1-3.9l-0.5,4.2c-0.1,0.6-0.5,1-1.2,0.9c-0.6-0.1-0.8-0.7-0.7-1.3l0.8-4.9c0.2-1,0.8-1.4,1.6-1.4
		C571.5,43.9,572.1,44.3,572.3,45.1z"/>
</g>
<path fill="#6FBC6D" d="M100.9,22.7c-4.1-2.3-10.7,1.4-14.7,8.4L79,43.6c-2.6,5.2-2.3,11.5,1.1,16.3l0.2,0.3
	c3.4,4.8,7.8,9.2,9.3,10.8c0.9,0.9,1.5,2.1,1.9,3.4c1.2,4.4-1.3,8.9-5.7,10.1c-4.4,1.2-8.9-1.3-10.1-5.7c-0.3-1.1-0.4-2.2-0.2-3.3
	c0.2-1.8-0.3-4.7-2.9-7.6c-2.6-2.9-7.9,2.6-9.6,8.2l-0.1,0.3c-1.7,5.6-2.8,10.5-2.5,11c0.2,0.3,0.4,0.6,0.5,0.9
	c2.4,4.5,0.7,10.1-3.8,12.5c-4.5,2.4-10.1,0.7-12.5-3.8c-2.4-4.5-0.7-10.1,3.8-12.5c0.2-0.1,0.4-0.2,0.6-0.3
	c0.3-0.2,1.3-2.5,2.2-5.3c0.8-2.8,1.5-5,1.5-5c0.1-0.3,0.2-0.6,0.2-0.9l4.6-16.3l-4.9,10c-0.6-1.9-1.5-2-3.6-0.5
	c-1.3,0.9-3.4,2.7-4.4,3.4c-1.9,1.4-3.5,4-4.4,5.7c-0.5,1-1.2,1.8-2.1,2.6c-3.5,2.8-8.6,2.3-11.5-1.2c-2.8-3.5-2.3-8.6,1.2-11.5
	c1-0.8,2.2-1.4,3.4-1.6c2.1-0.4,9-4.7,13.3-7.7c0.8-0.5,1.4-1,1.9-1.5l11.2-8.5L47.9,51c0,0-1-0.1-2.2,0c-3.6,0.4-7.3,0.9-8,1.8
	c-0.4,0.5-0.9,1-1.5,1.4c-3.3,2.4-7.8,1.6-10.2-1.7c-2.4-3.3-1.6-7.8,1.7-10.2c1.3-1,2.9-1.4,4.5-1.4c2.6,0.1,9.5,1.5,15.3,0.4
	l1.5-0.3c5.8-1,12.7-6,15.4-11.2c0,0,2.7-4.7,6-10.6c3.3-5.8,3.1-12.2-0.5-14.3l-6.6-3.7c-3.3-1.9-8.7-1.9-12.1,0L6,26.9
	c-3.3,1.9-6,6.5-6,10.3V87c0,3.8,2.7,8.4,6,10.3l45.2,25.5c3.3,1.9,8.7,1.9,12.1,0l45.1-25.5c3.3-1.9,6-6.5,6-10.3V37.2
	c0-3.8-2.7-8.5-6-10.3C108.4,26.9,105.1,25,100.9,22.7z"/>
</svg>
